<svg xmlns="http://www.w3.org/2000/svg" viewBox="0 0 120 120" fill="none">
        <defs>
            <radialGradient id="face1" cx="50%" cy="45%" r="50%">
                <stop offset="0%" stop-color="#ffecd2"/>
                <stop offset="100%" stop-color="#fcb69f"/>
            </radialGradient>
            <filter id="glowQiumi"><feDropShadow dx="0" dy="0" stdDeviation="4" flood-color="#ec4899" flood-opacity="0.6"/></filter>
        </defs>
        <!-- Bonnet -->
        <circle cx="60" cy="60" r="48" fill="#fef2f2" stroke="#fda4af" stroke-width="3" stroke-dasharray="4 3"/>
        <!-- Baby Head -->
        <circle cx="60" cy="62" r="38" fill="url(#face1)"/>
        <!-- Eyes -->
        <ellipse cx="48" cy="56" rx="3" ry="4" fill="#1e293b"/>
        <ellipse cx="72" cy="56" rx="3" ry="4" fill="#1e293b"/>
        <circle cx="49" cy="54" r="1" fill="#fff"/>
        <circle cx="73" cy="54" r="1" fill="#fff"/>
        <!-- Blush -->
        <circle cx="42" cy="66" r="6" fill="#f43f5e" opacity="0.4"/>
        <circle cx="78" cy="66" r="6" fill="#f43f5e" opacity="0.4"/>
        <!-- Kissing Mouth -->
        <ellipse cx="60" cy="68" rx="4.5" ry="6" fill="#f43f5e" stroke="#fda4af" stroke-width="1.5"/>
        <circle cx="60" cy="68" r="2" fill="#881337"/>
        <!-- Floating Heart -->
        <path d="M92 34 C92 28 84 26 84 32 C84 26 76 28 76 34 C76 42 84 46 84 46 C84 46 92 42 92 34 Z" fill="#f43f5e" filter="url(#glowQiumi)"/>
        <text x="60" y="110" fill="#6FFF00" font-size="14" font-family="'Anton', sans-serif" font-weight="bold" text-anchor="middle">啾咪 💋</text>
    </svg>